<svg xmlns="http://www.w3.org/2000/svg" width="150.016" height="150.016" viewBox="0 0 512 512">
  <defs>
    <style>
      .cls-1 {
        fill: #675f58;
      }

      .cls-1, .cls-2 {
        fill-rule: evenodd;
      }

      .cls-2 {
        fill: #10937f;
      }
    </style>
  </defs>
  <path id="Shape_317_1" data-name="Shape 317 1" class="cls-1" d="M400.878,284.063V120.646H110.248V284.063h99.9c5.385,2.977,5.8,13.849,5.677,22.7-13.206,5.967-28.318,13.974-42,18.157H149.983c-17.936,0-39.659,1.848-55.628-1.135-5.807-12.347-3.406-36.746-3.406-54.472V152.422c0-14.559-4.325-46.851,4.541-53.338,4.523-3.4,14.867-2.269,22.705-2.27H341.844c20.933,0,58.944-4,74.928,2.27,6.244,10.928,3.406,35.717,3.406,52.2V271.58c0,14.106,4.5,47.885-5.677,52.2-6.707,4.414-27.987,1.135-37.464,1.135H337.3c-7.943-2.516-17.382-8.1-24.976-11.348-4.034-1.725-15.125-3.289-17.029-6.809V293.142c2.5-2.429,4.089-5.743,5.676-9.079h99.9ZM137.5,152.422H140.9c4.666,6.962,14.06,11.023,17.029,19.292l-18.164,18.157-1.136-1.134c-2.967-1.9-3.762-2.457-4.541-6.81,4.155-2.617,9.635-7.486,11.353-12.483C137.753,164.915,132.7,160.213,137.5,152.422Zm30.652,10.213h23.841v7.944H168.147v-7.944ZM117.06,415.7c-2.023-17.438-3.608-38.388-2.27-57.876,6.059-3.96,11.3-10.431,18.164-13.619,49.782-23.133,150.737-25.684,206.619-9.078,16.41,4.876,50.56,9.818,55.629,23.831,5.306,6.637,1.481,50.288-2.271,55.607-4.2,2.595-15.3,1.135-21.57,1.135H117.06Z"/>
  <path id="Shape_318_1" data-name="Shape 318 1" class="cls-2" d="M299.343,262.069c-1.694,14.656-7.752,18.214-11.829,27.468v22.89c13.164,5.745,26.537,13.584,41.4,17.167v2.29h-2.366c-7.084-4.391-18.884-1.442-28.392-3.434-28.114-5.891-80.689-3.975-107.649,1.144v-2.289c4.569-.971,34.333-12.761,35.489-14.878v-22.89c-7.05-4.856-10.613-17.18-11.83-27.468h-4.732c-4.271-6.225-11.577-18.277-4.732-28.613,0.631-.953,4.291-1.565,4.732-2.289q-0.591-14.877-1.183-29.757c4.9-16.627,29.837-38.651,57.965-32.046,18.074,4.243,34.282,15.187,39.038,32.046q-0.591,14.877-1.183,29.757c0.212,0.357,4.994,2.523,5.915,4.578C315.038,247.005,309.689,260.976,299.343,262.069Z"/>
</svg>
