<?xml version="1.0" encoding="utf-8"?>
<svg width="323.4" height="75.57" viewBox="0 0 679.37 227.804" xmlns="http://www.w3.org/2000/svg">
  <defs>
    <style>
      .cls-1 {
        fill: #09806d;
      }

      .cls-1, .cls-2 {
        fill-rule: evenodd;
      }

      .cls-2 {
        fill: #fff;
      }
    </style>
  </defs>
  <path id="Shape_319_1" data-name="Shape 319 1" class="cls-1" d="M10.392,10.5h90.343v137h77.577c4.449,13.65,1.055,53.559.982,71H10.392V10.5Z"/>
  <path id="Shape_320_1" data-name="Shape 320 1" class="cls-1" d="M299.059,10.031c61.108-1.042,90.952,26.02,108.235,70.65,2.9,7.483,2.874,16.951,4.706,24.876,3.967,17.167-3.838,42.194-8.471,52.739-1.423,3.24-7.63,14.824-6.588,15.921,1.968,6.42,7.547,10.306,11.294,14.926A267.934,267.934,0,0,1,428,218H290.588c-3.57-2.385-8.824-1.317-13.176-2.985-12.583-4.823-26.944-12.638-35.765-21.892-20.749-21.767-39.3-64.981-26.353-109.457,4.3-14.77,12.734-27.624,20.706-38.808,9.222-12.937,26.231-23.365,41.412-29.852C283.475,12.415,293.378,13.743,299.059,10.031Zm20.706,63.684c-10.283,8.581-17.484,14.771-25.412,25.872l-7.53,6.966c-2.582,4.906-1.354,10.183-.941,15.921,11.9,9.984,19.606,34.752,39.53,34.827,2.354-2.418,5.152-4.631,7.529-6.966,1.352-21.61-15.631-20.545-18.823-35.822,5.257-3.595,18.062-17.971,18.823-25.872,1.659-2.837-.136-5.718-0.941-8.956-2.249-1.549-2.752-2.908-5.647-3.98C324.57,74.192,322.975,73.926,319.765,73.715Z"/>
  <path id="Shape_321_1" data-name="Shape 321 1" class="cls-1" d="M455,12.471c48.707-.446,117.847-5.988,153.8,8.013,25.118,9.782,41.079,28.615,52.931,52.086,7.135,14.129,13.955,43.883,7.99,67.111-10.328,40.214-36.913,64.558-75.9,76.126-14.592,4.33-33.7,3.005-51.933,3.005H455V12.471Zm89.883,61.1c-5.93,4.616-9.833,5.312-10.985,15.025,2.06,2.522,2.092,6.189,4,9.015,3.362,4.994,17.582,13.22,15.979,19.031-5.252,14.088-24.919,17.442-16.978,37.062,4.3,2.565,6.437,4.027,13.982,4.006,2.895-2.766,7.541-3.805,9.987-7.011,7.357-9.647,15.258-19.725,23.969-28.047,0.392-4.669,1.876-8.656,0-13.021C581,100.712,556.433,74.343,544.883,73.572Z"/>
</svg>