<svg xmlns="http://www.w3.org/2000/svg" width="413.354" height="102.672" viewBox="0 0 620 154">
  <defs>
    <style>
      .cls-1 {
        fill: #fff;
      }

      .cls-1, .cls-2, .cls-3, .cls-4 {
        fill-rule: evenodd;
      }

      .cls-2 {
        fill: #ababab;
      }

      .cls-3 {
        fill: #10937f;
      }

      .cls-4 {
        fill: #dadada;
      }
    </style>
  </defs>
  <path id="BĐ" class="cls-1" d="M461.084,102.726q3.537,0.188,9.681.528t11.916,0.341q14.522,0,22.745-3.661t11.6-10.147a31.671,31.671,0,0,0,3.383-14.864,21.316,21.316,0,0,0-2.607-10.488,21.982,21.982,0,0,0-7.013-7.7,20.252,20.252,0,0,0-9.929-3.413,16.814,16.814,0,0,0,7.943-4.53,19.892,19.892,0,0,0,4.562-7.6,28,28,0,0,0,1.458-8.906,21.243,21.243,0,0,0-3.351-12.009q-3.351-5.057-10.55-7.851t-18.68-2.793q-4.594,0-8.317.217t-6.919.434q-3.2.218-6.3,0.217l-8.5-.124v92.346h8.875Zm8.75-80.058A10.324,10.324,0,0,1,472.6,22.2q2.016-.154,4.127-0.248t3.1-.093q8.625,0,13.25,2.948t4.624,9.464q0,8.006-3.941,11.636t-10.706,3.631q-1.3,0-3.01.031t-3.568,0q-1.862-.03-3.569-0.124t-3.072-.279v-26.5Zm0,39.036q1.054-.124,2.638-0.217t3.506-.124q1.923-.03,3.786-0.031h3.351q9.991,0,14.585,3.538t4.592,11.047q0,8.564-4.965,12.009t-14.212,3.444q-2.048,0-4.809-.093t-5.12-.4A10.01,10.01,0,0,1,469.834,90V61.7Zm105.938-1.427V48.858H529.35V60.277h46.422Zm-37.454,42.449h4.562q4.963,0,10.984.435t11.668,0.558q14.272,0.188,24.576-5.678a39.08,39.08,0,0,0,15.856-17.036q5.554-11.171,5.555-26.934,0-21.162-10.861-32.861t-33.7-11.7q-4.158,0-8.5.248t-8.192.5q-3.849.249-6.516,0.248h-7.7v92.222h2.265Zm15.608-79.437q1.863-.31,4.841-0.59t6.082-.279q9.37,0,15.608,3.227A20.216,20.216,0,0,1,589.8,36.26q3.1,7.386,3.1,19.921,0,11.978-3.228,19.518t-9,11.109A25.67,25.67,0,0,1,567.332,90.5q-3.477,0-7.168-.248a43.1,43.1,0,0,1-6.238-.807V23.289Z"/>
  <path id="_-" data-name="-" class="cls-2" d="M438.47,68.864a7.427,7.427,0,0,0-.031-10.545q-2.213-2.03-6.7-2.03H412.591q-4.486,0-6.7,2.03a6.859,6.859,0,0,0-2.212,5.3,6.7,6.7,0,0,0,2.272,5.242q2.274,2.031,6.637,2.03h19.151Q436.289,70.894,438.47,68.864Z"/>
  <path id="QĐ" class="cls-3" d="M293.021,121.529a23.884,23.884,0,0,0,3.941-1.737v-12.35a23.862,23.862,0,0,1-4.375,1.117,30.038,30.038,0,0,1-4.748.372,34.6,34.6,0,0,1-8.44-.838,11.225,11.225,0,0,1-5.306-2.948,20.394,20.394,0,0,1-3.817-5.957h-6.33l-8.316,2.544a55.783,55.783,0,0,0,7.788,12.5,21.36,21.36,0,0,0,9.4,6.33A44,44,0,0,0,286.6,122.4,19.648,19.648,0,0,0,293.021,121.529ZM281.416,98.536A36.987,36.987,0,0,0,296.4,82.959q5.523-10.394,5.834-26.221,0.31-14.4-4.623-25.01a37.316,37.316,0,0,0-14.181-16.384q-9.249-5.772-21.784-5.585a49.069,49.069,0,0,0-22,5.213A37.192,37.192,0,0,0,224.1,30.238q-5.772,10.24-6.082,26.066-0.249,14.212,4.716,25.072a38.166,38.166,0,0,0,14.43,16.849q9.462,5.99,22.621,5.74A46.322,46.322,0,0,0,281.416,98.536Zm-34.537-12.35a27.824,27.824,0,0,1-8.037-12.226,50.6,50.6,0,0,1-2.7-16.912q0-12.1,3.413-19.58t9.123-10.923A23.7,23.7,0,0,1,261.153,23.1a18.835,18.835,0,0,1,12.784,4.406,26.683,26.683,0,0,1,7.634,11.916,51.8,51.8,0,0,1,2.544,16.694q0,17.626-6.454,26.127t-17.5,8.5A19.726,19.726,0,0,1,246.879,86.186ZM358.773,60.524V49.1H312.351V60.524h46.422Zm-37.454,42.449h4.562q4.964,0,10.984.435t11.668,0.558q14.272,0.186,24.576-5.678a39.08,39.08,0,0,0,15.856-17.036q5.553-11.171,5.555-26.934,0-21.162-10.861-32.861t-33.7-11.7q-4.158,0-8.5.248t-8.192.5q-3.849.249-6.517,0.248h-7.7v92.222h2.265Zm15.608-79.437q1.861-.31,4.841-0.59t6.082-.279q9.37,0,15.608,3.227a20.211,20.211,0,0,1,9.34,10.612q3.1,7.386,3.1,19.921,0,11.978-3.227,19.518t-9,11.109a25.663,25.663,0,0,1-13.343,3.693q-3.476,0-7.168-.248a43.086,43.086,0,0,1-6.237-.807V23.536Z"/>
  <path id="Online_Judge" data-name="Online Judge" class="cls-3" d="M361.377,140.945a13.274,13.274,0,0,0,5.379-5.59,20.809,20.809,0,0,0,2.094-9.411,20.074,20.074,0,0,0-1.659-8.976,13.394,13.394,0,0,0-5.09-5.881,14.049,14.049,0,0,0-7.818-2,17.6,17.6,0,0,0-7.9,1.871,13.348,13.348,0,0,0-5.58,5.479,19.7,19.7,0,0,0-2.183,9.355,20.561,20.561,0,0,0,1.693,9,13.7,13.7,0,0,0,5.179,6.047,14.342,14.342,0,0,0,8.119,2.06A16.616,16.616,0,0,0,361.377,140.945Zm-12.395-4.432a9.994,9.994,0,0,1-2.885-4.388,18.164,18.164,0,0,1-.969-6.07,17.088,17.088,0,0,1,1.225-7.027,8.179,8.179,0,0,1,7.752-5.156,6.76,6.76,0,0,1,4.588,1.581,9.573,9.573,0,0,1,2.74,4.277,18.605,18.605,0,0,1,.913,5.991q0,6.327-2.316,9.378a7.472,7.472,0,0,1-6.282,3.051A7.08,7.08,0,0,1,348.982,136.513Zm31.695,6.025V124.407a8.534,8.534,0,0,1,1.726-1.08,9.879,9.879,0,0,1,1.816-.657,7.637,7.637,0,0,1,1.6-.245q2.406-.133,3.185,1.1a8.292,8.292,0,0,1,.78,4.2v14.812h6.259V126.991q0-5.412-1.793-7.562t-5.713-2.06a12.061,12.061,0,0,0-3.219.534,17.473,17.473,0,0,0-2.94,1.192,12.973,12.973,0,0,0-2.194,1.392l-0.089-2.74H374.44v24.791h6.237Zm28.621,0v-36.2H403.04v36.2H409.3Zm13.587,0V117.747h-6.236v24.791h6.236Zm-0.579-29.758a3.58,3.58,0,0,0,1.225-2.762,3.46,3.46,0,0,0-.958-2.506,3.575,3.575,0,0,0-2.695-.991,4.03,4.03,0,0,0-2.016.535,4.459,4.459,0,0,0-1.536,1.414,3.42,3.42,0,0,0-.591,1.949,3.19,3.19,0,0,0,1.081,2.528,3.828,3.828,0,0,0,2.617.947A4.133,4.133,0,0,0,422.306,112.78Zm14.144,29.758V124.407a8.507,8.507,0,0,1,1.726-1.08,9.871,9.871,0,0,1,1.815-.657,7.656,7.656,0,0,1,1.6-.245q2.406-.133,3.185,1.1a8.292,8.292,0,0,1,.78,4.2v14.812h6.259V126.991q0-5.412-1.793-7.562t-5.713-2.06a12.048,12.048,0,0,0-3.219.534,17.473,17.473,0,0,0-2.94,1.192,12.973,12.973,0,0,0-2.194,1.392l-0.089-2.74h-5.658v24.791h6.237Zm35.949,0.033a17.365,17.365,0,0,0,3.185-.879,8.452,8.452,0,0,0,2.25-1.226l-1.069-3.452a6.8,6.8,0,0,1-1.749.646q-1.146.29-2.405,0.479a15.257,15.257,0,0,1-2.239.189,8.8,8.8,0,0,1-3.508-.657,5.22,5.22,0,0,1-2.439-2.172,8.432,8.432,0,0,1-1-4.076,19.408,19.408,0,0,1,.557-5.858,5.6,5.6,0,0,1,1.871-3.029,4.717,4.717,0,0,1,2.851-.891,3.847,3.847,0,0,1,2.673.847,4.127,4.127,0,0,1,1.236,2.294,12.2,12.2,0,0,1,.189,3.229H461.107l-0.446,3.542h17.73a13.5,13.5,0,0,0,.2-1.971q0.045-1.148.045-2.528a11.69,11.69,0,0,0-.846-4.455,8.089,8.089,0,0,0-2.15-3,8.628,8.628,0,0,0-3.074-1.682,13.01,13.01,0,0,0-10.012,1.17,10.6,10.6,0,0,0-3.953,4.51,14.931,14.931,0,0,0-1.348,6.46q0,6.036,3,9.433t8.587,3.4A19.725,19.725,0,0,0,472.4,142.571Zm20.168,6.493a13.638,13.638,0,0,0,3.286-1.737,11.982,11.982,0,0,0,2.806-2.807,9.676,9.676,0,0,0,1.626-3.942,25.546,25.546,0,0,0,.435-5.246q-0.035-2.883-.034-6.114V109.439h-6.415v19.868q0,3.743-.1,6.593a21.111,21.111,0,0,1-.612,4.722,7.344,7.344,0,0,1-2.35,3.854,12.329,12.329,0,0,1-3.33,2l1.626,3.275A11.4,11.4,0,0,0,492.567,149.064Zm26.149-6.515a16.5,16.5,0,0,0,2.762-.924,11.663,11.663,0,0,0,2.261-1.27l-0.111-.757v1.67a1.418,1.418,0,0,0,.512,1.348,3.081,3.081,0,0,0,1.448.278h3.675V117.725h-6.237v18.888a7.536,7.536,0,0,1-1.214.657,11.034,11.034,0,0,1-1.681.59,6.761,6.761,0,0,1-1.76.245,5.619,5.619,0,0,1-2.261-.389,2.543,2.543,0,0,1-1.3-1.626,12.5,12.5,0,0,1-.423-3.776V117.725H508.17v14.567a30.385,30.385,0,0,0,.278,4.288,9.353,9.353,0,0,0,1.091,3.363,5.43,5.43,0,0,0,2.361,2.183,9.251,9.251,0,0,0,4.088.768A11.7,11.7,0,0,0,518.716,142.549Zm38.856-.011v-36.2H551.38v9.734l0.178,5.813-0.178.156v17.062l0.423,0.267v3.163h5.769Zm-9.232-.245a8.86,8.86,0,0,0,2.428-1.381,19.581,19.581,0,0,0,1.458-1.336l-0.824-3.119a9.478,9.478,0,0,1-2.038,1.1,7.213,7.213,0,0,1-2.817.545,4.7,4.7,0,0,1-3.909-1.793q-1.416-1.793-1.348-5.824a12.529,12.529,0,0,1,.8-4.8,6.514,6.514,0,0,1,2.16-2.9,5.166,5.166,0,0,1,3.074-.969,13.046,13.046,0,0,1,2.417.2,3.519,3.519,0,0,1,1.659.713l1.649-3.965a7.175,7.175,0,0,0-1.916-.847,12.07,12.07,0,0,0-3.809-.512,12.467,12.467,0,0,0-6.582,1.693,11.551,11.551,0,0,0-4.354,4.755,15.58,15.58,0,0,0-1.559,7.161,14.453,14.453,0,0,0,1.358,6.649,9.311,9.311,0,0,0,3.586,3.931,9.461,9.461,0,0,0,4.834,1.292A10.1,10.1,0,0,0,548.34,142.293Zm30.849,10.9a14.255,14.255,0,0,0,4.109-1.682,8.571,8.571,0,0,0,2.829-2.751,6.964,6.964,0,0,0,1.025-3.775,7.9,7.9,0,0,0-.413-2.539,5.306,5.306,0,0,0-1.447-2.194,7.405,7.405,0,0,0-2.885-1.548,16.2,16.2,0,0,0-4.744-.579h-4.455a4.493,4.493,0,0,1-2.3-.435,1.767,1.767,0,0,1-.68-1.614,2.44,2.44,0,0,1,.557-1.5,3.228,3.228,0,0,1,1.426-1.058l-3.609-.735a7.22,7.22,0,0,0-2.227,1.492,6.05,6.05,0,0,0-1.247,1.793,4.484,4.484,0,0,0-.4,1.793,4,4,0,0,0,.657,2.261,4.11,4.11,0,0,0,2.327,1.5,1.531,1.531,0,0,1,.591.234,1.516,1.516,0,0,0,.568.233q0.69,0.157,1.436.257a13.478,13.478,0,0,0,1.749.1h3.564a10.079,10.079,0,0,1,3.508.468,2.884,2.884,0,0,1,1.626,1.336,4.537,4.537,0,0,1,.434,2.049,2.728,2.728,0,0,1-.891,2.094,5.486,5.486,0,0,1-2.383,1.214,13.032,13.032,0,0,1-3.3.39,7.581,7.581,0,0,1-3.3-.591,3.573,3.573,0,0,1-1.715-1.637,5.346,5.346,0,0,1-.513-2.383,4.062,4.062,0,0,1,.4-1.927,4.421,4.421,0,0,1,.925-1.214q0.522-.466.946-0.824l-3.7-.4a8.416,8.416,0,0,0-2.272,1.147,6.12,6.12,0,0,0-1.693,1.805,4.5,4.5,0,0,0-.646,2.394,6.155,6.155,0,0,0,2.874,5.491q2.873,1.881,8.4,1.9A20.27,20.27,0,0,0,579.189,153.2Zm0.5-20.046a7.814,7.814,0,0,0,3.63-2.851,8.032,8.032,0,0,0,1.27-4.6,7.691,7.691,0,0,0-1.348-4.655,8.037,8.037,0,0,0-3.73-2.762,16.334,16.334,0,0,0-10.8.1,7.905,7.905,0,0,0-3.642,2.829,8.082,8.082,0,0,0-1.3,4.711,7.247,7.247,0,0,0,1.325,4.354,8.565,8.565,0,0,0,3.642,2.84,13.238,13.238,0,0,0,5.3,1A14.878,14.878,0,0,0,579.69,133.15Zm-8.865-4.077A6.335,6.335,0,0,1,570.4,123a3.106,3.106,0,0,1,1.6-1.37,6.474,6.474,0,0,1,2.317-.39,4.3,4.3,0,0,1,3.3,1.17,4.834,4.834,0,0,1,1.092,3.419q0,2.739-1.248,3.686a5.35,5.35,0,0,1-3.318.947A3.807,3.807,0,0,1,570.825,129.073Zm17.529-6.826v-4.611h-2.762a6.919,6.919,0,0,0-3.2.713,5.419,5.419,0,0,0-1.838,1.314l1.181,2.584h6.615Zm17.329,20.324a17.365,17.365,0,0,0,3.185-.879,8.484,8.484,0,0,0,2.25-1.226l-1.069-3.452a6.8,6.8,0,0,1-1.749.646q-1.148.29-2.4,0.479a15.268,15.268,0,0,1-2.239.189,8.8,8.8,0,0,1-3.508-.657,5.22,5.22,0,0,1-2.439-2.172,8.432,8.432,0,0,1-1-4.076,19.408,19.408,0,0,1,.557-5.858,5.6,5.6,0,0,1,1.871-3.029,4.717,4.717,0,0,1,2.851-.891,3.843,3.843,0,0,1,2.672.847,4.122,4.122,0,0,1,1.237,2.294,12.2,12.2,0,0,1,.189,3.229H594.39l-0.445,3.542h17.73a13.786,13.786,0,0,0,.2-1.971q0.045-1.148.045-2.528a11.67,11.67,0,0,0-.847-4.455,8.076,8.076,0,0,0-2.149-3,8.636,8.636,0,0,0-3.074-1.682,13.01,13.01,0,0,0-10.012,1.17,10.611,10.611,0,0,0-3.954,4.51,14.945,14.945,0,0,0-1.347,6.46q0,6.036,3,9.433t8.586,3.4A19.728,19.728,0,0,0,605.683,142.571Z"/>
  <path class="cls-3" d="M183.009,125.009h145V139h-145V125.009Z"/>
  <path class="cls-3" d="M183.012,8.99H205V128.015H183.012V8.99Z"/>
  <path id="Shape_317_1" data-name="Shape 317 1" class="cls-4" d="M144.636,89.138V16.773H15.938V89.138h44.24c2.385,1.318,2.566,6.132,2.514,10.051-5.848,2.642-12.54,6.188-18.6,8.041H33.534c-7.942,0-17.562.818-24.634-.5C6.328,101.26,7.392,90.455,7.392,82.605V30.844C7.392,24.4,5.477,10.1,9.4,7.225c2-1.507,6.584-1,10.055-1.005H118.5c9.269,0,26.1-1.771,33.179,1.005,2.765,4.839,1.509,15.817,1.509,23.117V83.61c0,6.246,1.993,21.2-2.514,23.117-2.97,1.955-12.394.5-16.59,0.5h-17.6c-3.517-1.114-7.7-3.588-11.06-5.026-1.787-.764-6.7-1.456-7.541-3.015v-6.03a13.625,13.625,0,0,0,2.513-4.02h44.24ZM28,30.844h1.508c2.066,3.083,6.226,4.882,7.541,8.543l-8.044,8.041-0.5-.5c-1.314-.842-1.666-1.088-2.011-3.015,1.84-1.159,4.266-3.315,5.027-5.528C28.118,36.377,25.88,34.294,28,30.844Zm13.574,4.523H52.135v3.518H41.577V35.367ZM18.955,147.432A144.194,144.194,0,0,1,17.949,121.8c2.683-1.753,5.006-4.619,8.044-6.03,22.045-10.244,66.75-11.374,91.5-4.021,7.267,2.16,22.389,4.348,24.634,10.554,2.349,2.939.656,22.268-1.006,24.624-1.86,1.149-6.774.5-9.552,0.5H18.955Z"/>
  <path id="Shape_318_1" data-name="Shape 318 1" class="cls-3" d="M99.674,79.4c-0.75,6.49-3.433,8.066-5.239,12.164V101.7c5.829,2.544,11.751,6.015,18.334,7.6v1.013h-1.047c-3.137-1.944-8.362-.638-12.573-1.52-12.45-2.608-35.731-1.76-47.67.507v-1.014c2.023-.43,15.2-5.651,15.716-6.588V91.562c-3.122-2.15-4.7-7.608-5.239-12.164h-2.1c-1.891-2.756-5.127-8.093-2.1-12.67,0.279-.422,1.9-0.693,2.1-1.014q-0.262-6.588-.524-13.177c2.17-7.363,13.212-17.116,25.669-14.191,8,1.879,15.18,6.725,17.287,14.191q-0.263,6.588-.524,13.177c0.093,0.158,2.211,1.117,2.619,2.027C106.624,72.728,104.255,78.915,99.674,79.4Z"/>
</svg>
