<svg xmlns="http://www.w3.org/2000/svg" width="323.4" height="75.57" viewBox="0 0 980 229">
  <defs>
    <style>
      .cls-1 {
        fill: #09806d;
      }

      .cls-1, .cls-2 {
        fill-rule: evenodd;
      }

      .cls-2 {
        fill: #fff;
      }
    </style>
  </defs>
  <path id="Shape_319_1" data-name="Shape 319 1" class="cls-1" d="M10.392,10.5h90.343v137h77.577c4.449,13.65,1.055,53.559.982,71H10.392V10.5Z"/>
  <path id="Shape_320_1" data-name="Shape 320 1" class="cls-1" d="M299.059,10.031c61.108-1.042,90.952,26.02,108.235,70.65,2.9,7.483,2.874,16.951,4.706,24.876,3.967,17.167-3.838,42.194-8.471,52.739-1.423,3.24-7.63,14.824-6.588,15.921,1.968,6.42,7.547,10.306,11.294,14.926A267.934,267.934,0,0,1,428,218H290.588c-3.57-2.385-8.824-1.317-13.176-2.985-12.583-4.823-26.944-12.638-35.765-21.892-20.749-21.767-39.3-64.981-26.353-109.457,4.3-14.77,12.734-27.624,20.706-38.808,9.222-12.937,26.231-23.365,41.412-29.852C283.475,12.415,293.378,13.743,299.059,10.031Zm20.706,63.684c-10.283,8.581-17.484,14.771-25.412,25.872l-7.53,6.966c-2.582,4.906-1.354,10.183-.941,15.921,11.9,9.984,19.606,34.752,39.53,34.827,2.354-2.418,5.152-4.631,7.529-6.966,1.352-21.61-15.631-20.545-18.823-35.822,5.257-3.595,18.062-17.971,18.823-25.872,1.659-2.837-.136-5.718-0.941-8.956-2.249-1.549-2.752-2.908-5.647-3.98C324.57,74.192,322.975,73.926,319.765,73.715Z"/>
  <path id="Shape_321_1" data-name="Shape 321 1" class="cls-1" d="M455,12.471c48.707-.446,117.847-5.988,153.8,8.013,25.118,9.782,41.079,28.615,52.931,52.086,7.135,14.129,13.955,43.883,7.99,67.111-10.328,40.214-36.913,64.558-75.9,76.126-14.592,4.33-33.7,3.005-51.933,3.005H455V12.471Zm89.883,61.1c-5.93,4.616-9.833,5.312-10.985,15.025,2.06,2.522,2.092,6.189,4,9.015,3.362,4.994,17.582,13.22,15.979,19.031-5.252,14.088-24.919,17.442-16.978,37.062,4.3,2.565,6.437,4.027,13.982,4.006,2.895-2.766,7.541-3.805,9.987-7.011,7.357-9.647,15.258-19.725,23.969-28.047,0.392-4.669,1.876-8.656,0-13.021C581,100.712,556.433,74.343,544.883,73.572Z"/>
  <path id="Online_Judge" data-name="Online Judge" class="cls-2" d="M733.608,91.136a24.719,24.719,0,0,0,8.544-6.576,30.33,30.33,0,0,0,5.568-10.368,44.434,44.434,0,0,0,1.968-13.68,43.186,43.186,0,0,0-1.968-13.488,29.421,29.421,0,0,0-5.568-10.176,24.713,24.713,0,0,0-8.544-6.432,25.956,25.956,0,0,0-10.9-2.256,26.424,26.424,0,0,0-10.9,2.208,23.731,23.731,0,0,0-8.5,6.384,29.86,29.86,0,0,0-5.52,10.176,43.5,43.5,0,0,0-1.968,13.584,44.4,44.4,0,0,0,1.968,13.68,30.79,30.79,0,0,0,5.52,10.368,24.241,24.241,0,0,0,8.5,6.576A26.917,26.917,0,0,0,733.608,91.136ZM715.08,84.608a17.138,17.138,0,0,1-5.856-5.232,25.966,25.966,0,0,1-3.792-8.16,39.292,39.292,0,0,1-1.344-10.7,38.393,38.393,0,0,1,1.344-10.56,24.262,24.262,0,0,1,3.792-7.968,17.253,17.253,0,0,1,5.856-5.04,17.286,17.286,0,0,1,15.264,0,17.263,17.263,0,0,1,5.856,5.04,24.282,24.282,0,0,1,3.792,7.968,38.431,38.431,0,0,1,1.344,10.56,39.331,39.331,0,0,1-1.344,10.7,25.988,25.988,0,0,1-3.792,8.16,17.147,17.147,0,0,1-5.856,5.232A16.879,16.879,0,0,1,715.08,84.608Zm57.647,7.68V58.5a41.717,41.717,0,0,1,6.336-5.376A11.475,11.475,0,0,1,785.5,51.3q4.608,0,6.72,2.928t2.112,9.552V92.288H802.2V62.72q0-9.022-3.408-13.632t-10.8-4.608a16.167,16.167,0,0,0-8.592,2.256,38.05,38.05,0,0,0-7.056,5.616h-0.288l-0.672-6.72h-6.528V92.288h7.872Zm58.08,0.96a6.888,6.888,0,0,0,1.824-.576l-1.056-5.952a4.039,4.039,0,0,1-1.008.192h-0.72a2,2,0,0,1-1.536-.768,4.114,4.114,0,0,1-.672-2.688V23.936h-7.872V82.88q0,5.184,1.92,7.872t6.432,2.688A15.541,15.541,0,0,0,830.807,93.248Zm23.711-.96V45.632h-7.872V92.288h7.872Zm0.048-57.7a5.048,5.048,0,0,0,0-7.344,6.126,6.126,0,0,0-7.776,0,5.048,5.048,0,0,0,0,7.344A5.969,5.969,0,0,0,854.566,34.592Zm25.967,57.7V58.5a41.717,41.717,0,0,1,6.336-5.376A11.473,11.473,0,0,1,893.3,51.3q4.608,0,6.72,2.928t2.112,9.552V92.288h7.872V62.72q0-9.022-3.408-13.632T895.8,44.48a16.167,16.167,0,0,0-8.592,2.256,37.985,37.985,0,0,0-7.056,5.616h-0.288l-0.672-6.72h-6.528V92.288h7.872Zm74.5-.288a39.708,39.708,0,0,0,6.816-3.36l-2.784-5.184a27.369,27.369,0,0,1-5.424,2.64,18.345,18.345,0,0,1-6.192,1.008,14.387,14.387,0,0,1-10.9-4.368q-4.176-4.367-4.656-11.856H963.38a11.911,11.911,0,0,0,.24-2.064q0.048-1.2.048-2.448a30.492,30.492,0,0,0-1.248-9.024,20.262,20.262,0,0,0-3.6-6.912,15.457,15.457,0,0,0-5.856-4.416,19.56,19.56,0,0,0-7.92-1.536,18.811,18.811,0,0,0-7.776,1.68,20.417,20.417,0,0,0-6.672,4.848,24.145,24.145,0,0,0-4.7,7.728,28.239,28.239,0,0,0-1.776,10.32,28.567,28.567,0,0,0,1.728,10.272A22.207,22.207,0,0,0,930.6,86.96a20.789,20.789,0,0,0,7.1,4.8,22.861,22.861,0,0,0,8.784,1.68A23.677,23.677,0,0,0,955.028,92ZM933.38,59.072a15.536,15.536,0,0,1,3.024-4.56,12.507,12.507,0,0,1,4.08-2.832,12.022,12.022,0,0,1,4.752-.96,10.365,10.365,0,0,1,8.5,3.7q3.024,3.7,3.024,10.8H931.8A20.53,20.53,0,0,1,933.38,59.072ZM719.112,183.9a14.14,14.14,0,0,0,5.376-4.224,18.3,18.3,0,0,0,3.072-6.288,28.185,28.185,0,0,0,1.008-7.632V121.312H720.5v43.68q0,7.2-2.5,10.32t-7.584,3.12a11.171,11.171,0,0,1-6.048-1.68,14.7,14.7,0,0,1-4.8-5.424l-5.76,4.032q5.567,10.08,17.376,10.08A18.714,18.714,0,0,0,719.112,183.9Zm50.208-.768a31.121,31.121,0,0,0,6.864-6.144h0.288l0.672,7.3h6.528V137.632H775.8v33.12a30.208,30.208,0,0,1-6.144,6,11.257,11.257,0,0,1-6.432,1.872q-4.608,0-6.672-2.928t-2.064-9.552V137.632H746.52V167.2q0,9.024,3.408,13.632t10.9,4.608A15.419,15.419,0,0,0,769.32,183.136Zm56.159,0.336a29.5,29.5,0,0,0,6.384-4.656h0.288l0.672,5.472h6.528V115.936h-7.968v17.952l0.384,7.968a31.366,31.366,0,0,0-6.048-3.936,15.929,15.929,0,0,0-7.008-1.44,17.725,17.725,0,0,0-7.68,1.728,19.769,19.769,0,0,0-6.432,4.9,24.252,24.252,0,0,0-4.464,7.728,29.408,29.408,0,0,0-1.68,10.224q0,11.713,5.232,18.048t14.064,6.336A15.875,15.875,0,0,0,825.479,183.472Zm-15.5-9.36q-3.361-4.7-3.36-13.152a23.6,23.6,0,0,1,1.056-7.3,18.25,18.25,0,0,1,2.88-5.616,13.2,13.2,0,0,1,4.272-3.648,11.015,11.015,0,0,1,5.232-1.3,14.9,14.9,0,0,1,5.616,1.1A19.851,19.851,0,0,1,831.383,148v24.384a22.1,22.1,0,0,1-5.76,4.848,12.558,12.558,0,0,1-6.144,1.584A10.993,10.993,0,0,1,809.975,174.112Zm73.1,30.384a24.705,24.705,0,0,0,7.44-3.5,15.878,15.878,0,0,0,4.7-5.136,12.545,12.545,0,0,0,1.631-6.192q0-5.858-4.079-8.5t-12.24-2.64H871.51q-4.8,0-6.528-1.44a4.546,4.546,0,0,1-1.727-3.648,5.665,5.665,0,0,1,.864-3.216,11.252,11.252,0,0,1,2.112-2.352,17.541,17.541,0,0,0,3.455,1.2,15.388,15.388,0,0,0,3.552.432,19.109,19.109,0,0,0,6.672-1.152,16.7,16.7,0,0,0,5.425-3.216,14.8,14.8,0,0,0,3.647-5.088,16.488,16.488,0,0,0,1.344-6.768,13.712,13.712,0,0,0-3.84-9.6h9.6v-6.048H879.863a21.849,21.849,0,0,0-3.024-.816,18.364,18.364,0,0,0-3.6-.336,19.917,19.917,0,0,0-6.768,1.152,16.716,16.716,0,0,0-5.616,3.312,15.6,15.6,0,0,0-3.791,5.232,16.556,16.556,0,0,0-1.392,6.912,14.515,14.515,0,0,0,1.871,7.44,19.076,19.076,0,0,0,4.176,5.136v0.384a14.72,14.72,0,0,0-3.456,3.456,9.309,9.309,0,0,0-.431,9.84,9.115,9.115,0,0,0,2.928,2.928v0.384a19.154,19.154,0,0,0-4.993,4.9,9.92,9.92,0,0,0-1.823,5.664,10.186,10.186,0,0,0,1.392,5.376,12.158,12.158,0,0,0,3.935,3.936,19.188,19.188,0,0,0,6.1,2.448,35.238,35.238,0,0,0,7.871.816A34.569,34.569,0,0,0,883.078,204.5Zm-13.631-41.04a9.746,9.746,0,0,1-3.168-2.208,9.93,9.93,0,0,1-2.16-3.5,13.256,13.256,0,0,1-.769-4.656q0-5.184,2.881-8.016a10.086,10.086,0,0,1,14.015,0q2.882,2.832,2.88,8.016a13.279,13.279,0,0,1-.768,4.656,9.986,9.986,0,0,1-2.159,3.5,9.789,9.789,0,0,1-3.168,2.208A9.745,9.745,0,0,1,869.447,163.456Zm-4.992,34.656a6.721,6.721,0,0,1-3.6-5.952,8.056,8.056,0,0,1,1.153-4.032,12.729,12.729,0,0,1,3.647-3.84,15.04,15.04,0,0,0,3.121.624c1.056,0.1,2.03.144,2.928,0.144h8.063a15.585,15.585,0,0,1,7.009,1.248q2.4,1.246,2.4,4.512a6.741,6.741,0,0,1-1.056,3.552,9.933,9.933,0,0,1-2.976,3.024,16.98,16.98,0,0,1-4.657,2.112,21.317,21.317,0,0,1-6.1.816Q868.055,200.32,864.455,198.112ZM934.391,184a39.708,39.708,0,0,0,6.816-3.36l-2.784-5.184A27.369,27.369,0,0,1,933,178.1a18.345,18.345,0,0,1-6.192,1.008,14.387,14.387,0,0,1-10.9-4.368q-4.176-4.368-4.656-11.856h31.488a11.911,11.911,0,0,0,.24-2.064q0.048-1.2.048-2.448a30.492,30.492,0,0,0-1.248-9.024,20.262,20.262,0,0,0-3.6-6.912,15.452,15.452,0,0,0-5.856-4.416,19.56,19.56,0,0,0-7.92-1.536,18.811,18.811,0,0,0-7.776,1.68,20.409,20.409,0,0,0-6.672,4.848,24.145,24.145,0,0,0-4.7,7.728,28.237,28.237,0,0,0-1.776,10.32,28.568,28.568,0,0,0,1.728,10.272,22.207,22.207,0,0,0,4.752,7.632,20.8,20.8,0,0,0,7.1,4.8,22.861,22.861,0,0,0,8.784,1.68A23.677,23.677,0,0,0,934.391,184Zm-21.648-32.928a15.536,15.536,0,0,1,3.024-4.56,12.5,12.5,0,0,1,4.08-2.832,12.022,12.022,0,0,1,4.752-.96,10.365,10.365,0,0,1,8.5,3.7q3.024,3.7,3.024,10.8h-24.96A20.526,20.526,0,0,1,912.743,151.072Z"/>
</svg>
