<svg xmlns="http://www.w3.org/2000/svg" width="703.683" height="153.178" viewBox="0 0 1052 229">
  <defs>
    <style>
      .cls-1 {
        fill: #09806d;
      }

      .cls-1, .cls-2 {
        fill-rule: evenodd;
      }

      .cls-2 {
        fill: #fff;
      }
    </style>
  </defs>
  <path id="Shape_319_1" data-name="Shape 319 1" class="cls-1" d="M10.392,10.5h90.343v137h77.577c4.449,13.65,1.055,53.559.982,71H10.392V10.5Z"/>
  <path id="Shape_320_1" data-name="Shape 320 1" class="cls-1" d="M299.059,10.031c61.108-1.042,90.952,26.02,108.235,70.65,2.9,7.483,2.874,16.951,4.706,24.876,3.967,17.167-3.838,42.194-8.471,52.739-1.423,3.24-7.63,14.824-6.588,15.921,1.969,6.42,7.547,10.306,11.294,14.926A267.934,267.934,0,0,1,428,218H290.588c-3.57-2.385-8.824-1.317-13.176-2.985-12.583-4.823-26.944-12.638-35.765-21.892-20.749-21.767-39.3-64.981-26.353-109.457,4.3-14.77,12.734-27.624,20.706-38.808,9.222-12.937,26.232-23.365,41.412-29.852C283.475,12.415,293.378,13.743,299.059,10.031Zm20.706,63.684c-10.283,8.581-17.484,14.771-25.412,25.872l-7.529,6.966c-2.583,4.906-1.355,10.183-.942,15.921,11.9,9.984,19.606,34.752,39.53,34.827,2.354-2.418,5.152-4.631,7.529-6.966,1.352-21.61-15.631-20.545-18.823-35.822,5.257-3.595,18.062-17.971,18.823-25.872,1.659-2.837-.136-5.718-0.941-8.956-2.249-1.549-2.752-2.908-5.647-3.98C324.57,74.192,322.975,73.926,319.765,73.715Z"/>
  <path id="Shape_321_1" data-name="Shape 321 1" class="cls-1" d="M455,12.471c48.707-.446,117.847-5.988,153.8,8.013,25.118,9.782,41.079,28.615,52.931,52.086,7.135,14.129,13.955,43.883,7.99,67.111-10.328,40.214-36.913,64.558-75.9,76.126-14.592,4.33-33.7,3.005-51.933,3.005H455V12.471Zm89.884,61.1c-5.931,4.616-9.834,5.312-10.986,15.025,2.061,2.522,2.092,6.189,4,9.015,3.362,4.994,17.582,13.22,15.979,19.031-5.252,14.088-24.918,17.442-16.978,37.062,4.3,2.565,6.437,4.027,13.982,4.006,2.895-2.766,7.541-3.805,9.987-7.011,7.357-9.647,15.258-19.725,23.969-28.047,0.392-4.669,1.876-8.656,0-13.021C581,100.712,556.433,74.343,544.884,73.572Z"/>
  <path id="ONLINE" class="cls-2" d="M757.965,59.244a43.165,43.165,0,0,0-3.711-18.237,27.365,27.365,0,0,0-10.376-12.012,30.359,30.359,0,0,0-30.811.049,27.707,27.707,0,0,0-10.4,12.183,43.24,43.24,0,0,0-3.687,18.359v4a42.252,42.252,0,0,0,3.736,18.018,27.727,27.727,0,0,0,10.449,12.036,30.294,30.294,0,0,0,30.859,0,27.324,27.324,0,0,0,10.328-12.109A43.63,43.63,0,0,0,757.965,63.2V59.244ZM745.611,63.2q0,12.012-4.419,18.262T728.57,87.71a14.7,14.7,0,0,1-12.671-6.4q-4.566-6.4-4.565-18.115V59.1q0.1-11.474,4.614-17.749a14.574,14.574,0,0,1,12.525-6.274q8.2,0,12.671,6.3t4.467,18.115V63.2Zm81.055-37.4H814.41V76.431L782.623,25.8H770.27V96.89h12.353V46.451L814.312,96.89h12.354V25.8Zm26.953,0H841.266V96.89H885.9V87.027H853.619V25.8Zm54.785,0H896.1V96.89h12.3V25.8Zm71.582,0H967.73V76.431L935.943,25.8H923.59V96.89h12.353V46.451l31.69,50.439h12.353V25.8Zm56.154,29.59h-29.2V35.757h33.79V25.8H994.586V96.89h46.484V87.027h-34.13V65.152h29.2V55.386Z"/>
  <path id="JUDGE" class="cls-2" d="M735.328,180.476q0,5.811-2.954,9.107a10.128,10.128,0,0,1-7.935,3.3q-5.322,0-8.129-2.857T713.5,181.5H701.2q0,10.01,6.055,15.625t17.187,5.615q10.449,0,16.822-6.006t6.372-16.211V130.671H735.328v49.805Zm66.113-49.805v47.168q0,15.041-14.257,15.04-7.032,0-10.645-3.76t-3.613-10.889V130.671H760.621v47.461q0,11.572,7.178,18.091t19.385,6.519q12.058,0,19.311-6.616t7.251-17.945v-47.51h-12.3Zm45.948,71.094a34.457,34.457,0,0,0,17.065-4.15A28.293,28.293,0,0,0,875.929,185.8a37.666,37.666,0,0,0,4.028-17.773v-3.564a37.824,37.824,0,0,0-4-17.676,28.639,28.639,0,0,0-11.3-11.914,32.925,32.925,0,0,0-16.723-4.2h-21v71.094h20.459Zm0.537-61.133q9.568,0,14.6,6.1t5.03,17.676v3.955q-0.1,11.378-5.3,17.456T847.34,191.9h-8.057v-51.27h8.643Zm98.828,24.659H919.8v9.375h14.648v13.916q-4,4.3-13.476,4.3-8.643,0-13.5-6.366t-4.859-17.88V163.17q0.147-11.562,4.468-17.538t12.622-5.976q12.841,0,14.893,12.842h12.109q-1.416-11.036-8.4-16.919T919.459,129.7q-13.819,0-21.533,9.058t-7.715,25.17v5.567a40.575,40.575,0,0,0,3.882,17.6,26.99,26.99,0,0,0,10.62,11.6,30.6,30.6,0,0,0,15.82,4.053,43.641,43.641,0,0,0,15.528-2.588,23.62,23.62,0,0,0,10.693-7.617V165.291Zm55.126-5.03h-29.2V140.632h33.788v-9.961H960.328v71.094h46.482V191.9H972.682V170.027h29.2v-9.766Z"/>
</svg>
