<svg xmlns="http://www.w3.org/2000/svg" width="258.57" height="63.847" viewBox="0 0 1300 321">
  <defs>
    <style>
      .cls-1 {
        fill: #dadada;
      }

      .cls-1, .cls-2, .cls-3 {
        fill-rule: evenodd;
      }

      .cls-2 {
        fill: #10937f;
      }

      .cls-3 {
        fill: #9b9b9b;
        stroke: #000;
        stroke-width: 1px;
      }
    </style>
  </defs>
  <path id="Shape_317_1" data-name="Shape 317 1" class="cls-1" d="M291.334,185.665V42.037H35.9V185.665H123.7c4.733,2.616,5.093,12.171,4.989,19.948-11.607,5.245-24.889,12.282-36.918,15.959H70.821c-15.764,0-34.856,1.623-48.892-1-5.1-10.851-2.993-32.3-2.993-47.876V69.964c0-12.8-3.8-41.177,3.991-46.879,3.975-2.992,13.067-1.994,19.956-1.995H239.449c18.4,0,51.806-3.516,65.854,1.995,5.488,9.6,2.994,31.392,2.994,45.881V174.693c0,12.4,3.955,42.087-4.989,45.881-5.895,3.88-24.6,1-32.928,1H235.457c-6.98-2.211-15.276-7.12-21.951-9.974-3.546-1.516-13.293-2.891-14.967-5.985V193.644c2.193-2.134,3.594-5.047,4.989-7.979h87.806ZM59.845,69.964h2.993c4.1,6.12,12.358,9.689,14.967,16.956L61.841,102.879l-1-1c-2.608-1.671-3.307-2.159-3.991-5.985,3.652-2.3,8.468-6.58,9.978-10.972C60.072,80.945,55.63,76.812,59.845,69.964Zm26.941,8.977h20.953v6.982H86.786V78.941Zm-44.9,222.424c-1.778-15.326-3.172-33.739-2-50.868,5.326-3.48,9.936-9.168,15.965-11.969,43.754-20.332,132.484-22.574,181.6-7.979,14.423,4.285,44.437,8.629,48.892,20.945,4.664,5.833,1.3,44.2-2,48.874-3.692,2.28-13.446,1-18.959,1H41.885Z"/>
  <path id="Shape_318_1" data-name="Shape 318 1" class="cls-2" d="M202.1,166.334c-1.49,12.881-6.814,16.008-10.4,24.142v20.118c11.57,5.049,23.324,11.939,36.39,15.089v2.011h-2.08c-6.226-3.858-16.6-1.266-24.953-3.017-24.71-5.177-70.918-3.494-94.614,1.006v-2.012c4.016-.854,30.176-11.216,31.191-13.077V190.476c-6.195-4.268-9.327-15.1-10.4-24.142h-4.159c-3.753-5.471-10.175-16.063-4.158-25.148,0.554-.837,3.771-1.376,4.158-2.012q-0.519-13.076-1.039-26.153c4.306-14.614,26.223-33.971,50.946-28.166,15.885,3.73,30.13,13.348,34.31,28.166q-0.519,13.075-1.039,26.153c0.185,0.314,4.389,2.218,5.2,4.024C215.889,153.094,211.187,165.373,202.1,166.334Z"/>
  <path id="VN" class="cls-2" d="M430.855,266.312h59.4l67.5-210.3h-48.3l-32.4,113.7c-5.7,20.4-10.2,39-14.1,58.5h-1.2c-4.2-20.1-9.6-38.7-15-58.2l-32.4-114h-51Zm181.2-153c8.7,23.1,17.4,43.8,27.9,64.2l46.2,88.8h53.7V56.01h-43.5v66.6c0,22.2,0,51.3,2.4,80.7h-1.2c-7.8-21-19.2-44.4-29.7-64.5l-42.9-82.8h-54.9v210.3h43.8v-79.5c0-36.3-.9-52.5-3-73.5h1.2Z"/>
  <path id="OJ" class="cls-1" d="M916.538,154.008c0-52.2,15.9-68.4,38.4-68.4,25.5,0,41.4,18.6,41.4,71.1,0,51.9-14.7,69-38.7,69C932.138,225.708,916.538,207.108,916.538,154.008Zm127.2,0.6c0-78.3-33.9-107.1-86.1-107.1-51,0-88.2,33-88.2,109.5,0,78.6,33,106.8,85.5,106.8C1006.24,263.809,1043.74,231.108,1043.74,154.608Zm1.49,101.1c3.9,2.4,18.3,9,43.8,9,44.11,0,62.41-23.4,62.41-54.9V50.507h-45.9v156c0,12.6-4.21,18.3-17.71,18.3-9.9,0-21.6-4.5-28.5-9.6Z"/>
  <path id="_" data-name="{" class="cls-3" d="M772.686,173.606c23.184,0.672,25.536,13.44,25.536,22.848,0,8.4-1.008,17.136-2.016,26.208a244.8,244.8,0,0,0-1.68,26.544c0,33.6,20.832,45.7,50.736,45.7h12.1V266.678H851.31c-15.456,0-20.5-9.408-20.5-24.192,0-5.712,1.008-12.1,1.68-18.816,0.672-7.056,1.68-14.784,1.68-23.52,0.336-25.536-10.08-35.28-28.56-39.312v-0.672c18.48-4.032,28.9-13.44,28.56-38.976,0-8.4-1.008-16.127-1.68-22.847-0.672-7.056-1.68-13.1-1.68-19.152,0-14.784,5.376-23.856,20.5-23.856h6.048V26.775H845.6c-31.248,0-51.072,13.776-51.072,45.36a244.8,244.8,0,0,0,1.68,26.544c1.008,9.072,2.016,17.808,2.016,26.207,0,10.08-2.352,22.176-25.536,22.848v25.872Z"/>
  <path id="_2" data-name="}" class="cls-3" d="M1259.03,147.734c-22.85-.672-25.54-12.768-25.54-22.848,0-8.4,1.01-17.135,2.02-26.207s2.02-18.144,2.02-26.544c0-31.584-19.83-45.36-51.41-45.36h-11.76v28.56h6.05c15.12,0.336,20.49,9.072,20.49,23.856a134.134,134.134,0,0,1-1.68,19.152c-0.67,6.72-1.68,14.448-1.68,22.847-0.33,25.536,10.08,34.944,28.9,38.976v0.672c-18.82,4.032-29.23,13.776-28.9,39.312,0,8.736,1.01,16.464,1.68,23.52a129.741,129.741,0,0,1,1.68,18.816c0,14.784-5.04,23.856-20.49,24.192h-6.05V294.9h12.09c30.24,0,51.08-12.1,51.08-45.7,0-8.4-1.01-17.472-2.02-26.544s-2.02-17.808-2.02-26.208c0-9.408,2.69-22.176,25.54-22.848V147.734Z"/>
</svg>
