<svg xmlns="http://www.w3.org/2000/svg" width="413.354" height="102.672" viewBox="0 0 620 154">
  <defs>
    <style>
      .cls-1 {
        fill: #fff;
      }

      .cls-1, .cls-2, .cls-3, .cls-4 {
        fill-rule: evenodd;
      }

      .cls-2 {
        fill: #ababab;
      }

      .cls-3 {
        fill: #10937f;
      }

      .cls-4 {
        fill: #dadada;
      }
    </style>
  </defs>
  <path id="BĐ" class="cls-1" d="M461.084,102.726q3.537,0.188,9.681.528t11.916,0.341q14.522,0,22.745-3.661t11.6-10.147a31.671,31.671,0,0,0,3.383-14.864,21.316,21.316,0,0,0-2.607-10.488,21.982,21.982,0,0,0-7.013-7.7,20.252,20.252,0,0,0-9.929-3.413,16.814,16.814,0,0,0,7.943-4.53,19.892,19.892,0,0,0,4.562-7.6,28,28,0,0,0,1.458-8.906,21.243,21.243,0,0,0-3.351-12.009q-3.351-5.057-10.55-7.851t-18.68-2.793q-4.594,0-8.317.217t-6.919.434q-3.2.218-6.3,0.217l-8.5-.124v92.346h8.875Zm8.75-80.058A10.324,10.324,0,0,1,472.6,22.2q2.016-.154,4.127-0.248t3.1-.093q8.625,0,13.25,2.948t4.624,9.464q0,8.006-3.941,11.636t-10.706,3.631q-1.3,0-3.01.031t-3.568,0q-1.862-.03-3.569-0.124t-3.072-.279v-26.5Zm0,39.036q1.054-.124,2.638-0.217t3.506-.124q1.923-.03,3.786-0.031h3.351q9.991,0,14.585,3.538t4.592,11.047q0,8.564-4.965,12.009t-14.212,3.444q-2.048,0-4.809-.093t-5.12-.4A10.01,10.01,0,0,1,469.834,90V61.7Zm105.938-1.427V48.858H529.35V60.277h46.422Zm-37.454,42.449h4.562q4.963,0,10.984.435t11.668,0.558q14.272,0.188,24.576-5.678a39.08,39.08,0,0,0,15.856-17.036q5.554-11.171,5.555-26.934,0-21.162-10.861-32.861t-33.7-11.7q-4.158,0-8.5.248t-8.192.5q-3.849.249-6.516,0.248h-7.7v92.222h2.265Zm15.608-79.437q1.863-.31,4.841-0.59t6.082-.279q9.37,0,15.608,3.227A20.216,20.216,0,0,1,589.8,36.26q3.1,7.386,3.1,19.921,0,11.978-3.228,19.518t-9,11.109A25.67,25.67,0,0,1,567.332,90.5q-3.477,0-7.168-.248a43.1,43.1,0,0,1-6.238-.807V23.289Z"/>
  <path id="_-" data-name="-" class="cls-2" d="M438.47,68.864a7.427,7.427,0,0,0-.031-10.545q-2.213-2.03-6.7-2.03H412.591q-4.486,0-6.7,2.03a6.859,6.859,0,0,0-2.212,5.3,6.7,6.7,0,0,0,2.272,5.242q2.274,2.031,6.637,2.03h19.151Q436.289,70.894,438.47,68.864Z"/>
  <path id="QĐ" class="cls-3" d="M293.021,121.529a23.884,23.884,0,0,0,3.941-1.737v-12.35a23.862,23.862,0,0,1-4.375,1.117,30.038,30.038,0,0,1-4.748.372,34.6,34.6,0,0,1-8.44-.838,11.225,11.225,0,0,1-5.306-2.948,20.394,20.394,0,0,1-3.817-5.957h-6.33l-8.316,2.544a55.783,55.783,0,0,0,7.788,12.5,21.36,21.36,0,0,0,9.4,6.33A44,44,0,0,0,286.6,122.4,19.648,19.648,0,0,0,293.021,121.529ZM281.416,98.536A36.987,36.987,0,0,0,296.4,82.959q5.523-10.394,5.834-26.221,0.31-14.4-4.623-25.01a37.316,37.316,0,0,0-14.181-16.384q-9.249-5.772-21.784-5.585a49.069,49.069,0,0,0-22,5.213A37.192,37.192,0,0,0,224.1,30.238q-5.772,10.24-6.082,26.066-0.249,14.212,4.716,25.072a38.166,38.166,0,0,0,14.43,16.849q9.462,5.99,22.621,5.74A46.322,46.322,0,0,0,281.416,98.536Zm-34.537-12.35a27.824,27.824,0,0,1-8.037-12.226,50.6,50.6,0,0,1-2.7-16.912q0-12.1,3.413-19.58t9.123-10.923A23.7,23.7,0,0,1,261.153,23.1a18.835,18.835,0,0,1,12.784,4.406,26.683,26.683,0,0,1,7.634,11.916,51.8,51.8,0,0,1,2.544,16.694q0,17.626-6.454,26.127t-17.5,8.5A19.726,19.726,0,0,1,246.879,86.186ZM358.773,60.524V49.1H312.351V60.524h46.422Zm-37.454,42.449h4.561q4.965,0,10.985.435t11.668,0.558q14.272,0.186,24.576-5.678a39.08,39.08,0,0,0,15.856-17.036q5.553-11.171,5.554-26.934,0-21.162-10.86-32.861t-33.7-11.7q-4.158,0-8.5.248t-8.192.5q-3.849.249-6.517,0.248h-7.7v92.222h2.265Zm15.608-79.437q1.861-.31,4.841-0.59t6.082-.279q9.37,0,15.608,3.227a20.211,20.211,0,0,1,9.34,10.612q3.1,7.386,3.1,19.921,0,11.978-3.227,19.518t-9,11.109a25.663,25.663,0,0,1-13.343,3.693q-3.476,0-7.168-.248a43.086,43.086,0,0,1-6.237-.807V23.536Z"/>
  <path id="Online_Judge" data-name="Online Judge" class="cls-3" d="M403.643,141.047a11.094,11.094,0,0,0,4.5-4.673,17.4,17.4,0,0,0,1.75-7.866A16.775,16.775,0,0,0,408.5,121a11.2,11.2,0,0,0-4.254-4.915,11.741,11.741,0,0,0-6.535-1.675,14.711,14.711,0,0,0-6.6,1.564,11.152,11.152,0,0,0-4.664,4.58,16.463,16.463,0,0,0-1.824,7.819,17.161,17.161,0,0,0,1.415,7.522,11.445,11.445,0,0,0,4.328,5.055,11.993,11.993,0,0,0,6.787,1.722A13.905,13.905,0,0,0,403.643,141.047Zm-10.361-3.7a8.344,8.344,0,0,1-2.411-3.668,15.181,15.181,0,0,1-.81-5.073,14.262,14.262,0,0,1,1.024-5.874,6.838,6.838,0,0,1,6.479-4.311,5.653,5.653,0,0,1,3.836,1.322,8.02,8.02,0,0,1,2.29,3.575,15.564,15.564,0,0,1,.763,5.008q0,5.289-1.936,7.839a6.246,6.246,0,0,1-5.251,2.55A5.918,5.918,0,0,1,393.282,137.342Zm26.493,5.036V127.223a7.122,7.122,0,0,1,1.443-.9,8.3,8.3,0,0,1,1.518-.549,6.39,6.39,0,0,1,1.34-.2q2.011-.113,2.663.921a6.941,6.941,0,0,1,.651,3.51v12.381h5.232V129.383q0-4.526-1.5-6.321t-4.775-1.722a10.1,10.1,0,0,0-2.691.446,14.709,14.709,0,0,0-2.457,1,10.865,10.865,0,0,0-1.834,1.164l-0.075-2.29h-4.729v20.722h5.213Zm23.924,0V112.124h-5.231v30.254H443.7Zm11.357,0V121.656h-5.213v20.722h5.213ZM454.572,117.5A2.992,2.992,0,0,0,455.6,115.2a2.9,2.9,0,0,0-.8-2.095,2.989,2.989,0,0,0-2.253-.829,3.371,3.371,0,0,0-1.685.447,3.726,3.726,0,0,0-1.285,1.183,2.859,2.859,0,0,0-.493,1.629,2.67,2.67,0,0,0,.9,2.113,3.2,3.2,0,0,0,2.188.791A3.454,3.454,0,0,0,454.572,117.5ZM466.4,142.378V127.223a7.1,7.1,0,0,1,1.443-.9,8.29,8.29,0,0,1,1.517-.549,6.389,6.389,0,0,1,1.341-.2q2.01-.113,2.662.921a6.939,6.939,0,0,1,.652,3.51v12.381h5.231V129.383q0-4.526-1.5-6.321t-4.776-1.722a10.089,10.089,0,0,0-2.69.446,14.686,14.686,0,0,0-2.458,1,10.906,10.906,0,0,0-1.834,1.164l-0.074-2.29h-4.729v20.722H466.4Zm30.049,0.028a14.564,14.564,0,0,0,2.663-.735,7.124,7.124,0,0,0,1.88-1.024l-0.894-2.886a5.7,5.7,0,0,1-1.461.54q-0.96.242-2.011,0.4a12.657,12.657,0,0,1-1.871.158,7.354,7.354,0,0,1-2.932-.549,4.359,4.359,0,0,1-2.039-1.815,7.06,7.06,0,0,1-.838-3.407,16.239,16.239,0,0,1,.465-4.9,4.689,4.689,0,0,1,1.564-2.532,3.949,3.949,0,0,1,2.384-.745,3.217,3.217,0,0,1,2.234.708,3.451,3.451,0,0,1,1.033,1.917,10.162,10.162,0,0,1,.158,2.7h-9.774l-0.373,2.96h14.82a11.373,11.373,0,0,0,.168-1.647q0.037-.96.037-2.114a9.754,9.754,0,0,0-.707-3.723,6.748,6.748,0,0,0-1.8-2.5,7.214,7.214,0,0,0-2.569-1.406,10.879,10.879,0,0,0-8.369.977,8.867,8.867,0,0,0-3.3,3.771,12.483,12.483,0,0,0-1.126,5.4q0,5.046,2.5,7.885t7.177,2.839A16.456,16.456,0,0,0,496.444,142.406Zm16.858,5.427a11.371,11.371,0,0,0,2.746-1.452,10.008,10.008,0,0,0,2.346-2.346,8.084,8.084,0,0,0,1.359-3.295,21.3,21.3,0,0,0,.363-4.385q-0.027-2.41-.027-5.111V114.711h-5.363v16.608q0,3.128-.083,5.511a17.65,17.65,0,0,1-.512,3.947A6.135,6.135,0,0,1,512.166,144a10.274,10.274,0,0,1-2.783,1.675l1.359,2.737A9.481,9.481,0,0,0,513.3,147.833Zm21.857-5.446a13.727,13.727,0,0,0,2.309-.772,9.771,9.771,0,0,0,1.89-1.062l-0.093-.633v1.4a1.183,1.183,0,0,0,.428,1.126,2.57,2.57,0,0,0,1.21.233h3.072V121.637h-5.213v15.789a6.254,6.254,0,0,1-1.015.549,9.284,9.284,0,0,1-1.4.493,5.657,5.657,0,0,1-1.471.205,4.682,4.682,0,0,1-1.89-.326,2.126,2.126,0,0,1-1.089-1.359,10.432,10.432,0,0,1-.354-3.156V121.637h-5.194v12.177a25.315,25.315,0,0,0,.233,3.584,7.807,7.807,0,0,0,.912,2.811,4.543,4.543,0,0,0,1.973,1.825,7.734,7.734,0,0,0,3.417.642A9.735,9.735,0,0,0,535.159,142.387Zm32.479-.009V112.124h-5.175v8.136l0.148,4.859-0.148.13v14.262l0.353,0.223v2.644h4.822Zm-7.717-.2a7.392,7.392,0,0,0,2.03-1.154,16.526,16.526,0,0,0,1.219-1.117l-0.689-2.607a7.9,7.9,0,0,1-1.7.922,6.044,6.044,0,0,1-2.356.456,3.928,3.928,0,0,1-3.267-1.5q-1.182-1.5-1.127-4.868a10.481,10.481,0,0,1,.671-4.013,5.439,5.439,0,0,1,1.806-2.42,4.315,4.315,0,0,1,2.569-.81,10.9,10.9,0,0,1,2.02.168,2.94,2.94,0,0,1,1.387.6l1.378-3.315a6.021,6.021,0,0,0-1.6-.707,10.1,10.1,0,0,0-3.184-.428,10.42,10.42,0,0,0-5.5,1.415,9.652,9.652,0,0,0-3.64,3.975,13.039,13.039,0,0,0-1.3,5.985,12.086,12.086,0,0,0,1.136,5.558,7.785,7.785,0,0,0,3,3.286,7.913,7.913,0,0,0,4.041,1.08A8.438,8.438,0,0,0,559.921,142.173Zm25.786,9.114a11.916,11.916,0,0,0,3.435-1.406,7.176,7.176,0,0,0,2.365-2.3,5.83,5.83,0,0,0,.856-3.156,6.625,6.625,0,0,0-.344-2.122,4.428,4.428,0,0,0-1.211-1.834,6.185,6.185,0,0,0-2.411-1.294,13.529,13.529,0,0,0-3.965-.484h-3.724a3.764,3.764,0,0,1-1.927-.363,1.478,1.478,0,0,1-.568-1.35,2.034,2.034,0,0,1,.466-1.257,2.69,2.69,0,0,1,1.191-.884l-3.016-.615a6.038,6.038,0,0,0-1.862,1.248,5.04,5.04,0,0,0-1.042,1.5,3.75,3.75,0,0,0-.335,1.5,3.342,3.342,0,0,0,.549,1.89,3.439,3.439,0,0,0,1.945,1.257,1.292,1.292,0,0,1,.494.195,1.26,1.26,0,0,0,.475.2q0.576,0.13,1.2.214a11.105,11.105,0,0,0,1.462.084h2.979a8.416,8.416,0,0,1,2.932.391,2.408,2.408,0,0,1,1.359,1.117,3.788,3.788,0,0,1,.363,1.713,2.283,2.283,0,0,1-.744,1.75,4.587,4.587,0,0,1-1.992,1.014,10.914,10.914,0,0,1-2.756.326,6.341,6.341,0,0,1-2.755-.493,2.986,2.986,0,0,1-1.434-1.369,4.465,4.465,0,0,1-.428-1.992,3.379,3.379,0,0,1,.335-1.61,3.666,3.666,0,0,1,.773-1.015q0.437-.391.791-0.689l-3.091-.335a6.982,6.982,0,0,0-1.9.959,5.113,5.113,0,0,0-1.415,1.508,3.762,3.762,0,0,0-.54,2,5.146,5.146,0,0,0,2.4,4.59q2.4,1.573,7.019,1.592A16.982,16.982,0,0,0,585.707,151.287Zm0.419-16.756a6.539,6.539,0,0,0,3.035-2.384,6.716,6.716,0,0,0,1.061-3.844,6.439,6.439,0,0,0-1.126-3.891,6.723,6.723,0,0,0-3.119-2.309,13.656,13.656,0,0,0-9.03.084,6.6,6.6,0,0,0-3.044,2.364,6.759,6.759,0,0,0-1.089,3.938,6.053,6.053,0,0,0,1.108,3.64,7.155,7.155,0,0,0,3.044,2.374,11.075,11.075,0,0,0,4.431.837A12.456,12.456,0,0,0,586.126,134.531Zm-7.41-3.408a5.294,5.294,0,0,1-.354-5.073,2.6,2.6,0,0,1,1.341-1.145,5.417,5.417,0,0,1,1.936-.326,3.6,3.6,0,0,1,2.756.978,4.041,4.041,0,0,1,.912,2.857q0,2.291-1.043,3.082a4.478,4.478,0,0,1-2.774.791A3.184,3.184,0,0,1,578.716,131.123Zm14.652-5.706v-3.854H591.06a5.784,5.784,0,0,0-2.672.6,4.524,4.524,0,0,0-1.536,1.1l0.987,2.16h5.529Zm14.485,16.989a14.564,14.564,0,0,0,2.663-.735,7.124,7.124,0,0,0,1.88-1.024l-0.894-2.886a5.7,5.7,0,0,1-1.461.54q-0.96.242-2.011,0.4a12.657,12.657,0,0,1-1.871.158,7.354,7.354,0,0,1-2.932-.549,4.359,4.359,0,0,1-2.039-1.815,7.06,7.06,0,0,1-.838-3.407,16.2,16.2,0,0,1,.466-4.9,4.683,4.683,0,0,1,1.563-2.532,3.949,3.949,0,0,1,2.384-.745,3.217,3.217,0,0,1,2.234.708,3.445,3.445,0,0,1,1.033,1.917,10.162,10.162,0,0,1,.158,2.7h-9.774l-0.373,2.96h14.821a11.53,11.53,0,0,0,.167-1.647q0.037-.96.037-2.114a9.754,9.754,0,0,0-.707-3.723,6.748,6.748,0,0,0-1.8-2.5,7.214,7.214,0,0,0-2.569-1.406,10.879,10.879,0,0,0-8.369.977,8.867,8.867,0,0,0-3.305,3.771,12.483,12.483,0,0,0-1.126,5.4q0,5.046,2.5,7.885t7.177,2.839A16.456,16.456,0,0,0,607.853,142.406Z"/>
  <path class="cls-3" d="M182.981,125.072H376.607v14.272H182.981V125.072Z"/>
  <path class="cls-3" d="M183.012,8.99H205V128.015H183.012V8.99Z"/>
  <path id="Shape_317_1" data-name="Shape 317 1" class="cls-4" d="M144.636,89.138V16.773H15.938V89.138h44.24c2.385,1.318,2.566,6.132,2.514,10.051-5.848,2.642-12.54,6.188-18.6,8.041H33.534c-7.943,0-17.562.818-24.634-.5C6.328,101.26,7.392,90.455,7.392,82.605V30.844C7.392,24.4,5.477,10.1,9.4,7.225c2-1.507,6.584-1,10.055-1.005H118.5c9.269,0,26.1-1.771,33.179,1.005,2.765,4.839,1.509,15.817,1.509,23.117V83.61c0,6.246,1.993,21.2-2.514,23.117-2.97,1.955-12.394.5-16.59,0.5h-17.6c-3.517-1.114-7.7-3.588-11.06-5.026-1.787-.764-6.7-1.456-7.541-3.015v-6.03a13.625,13.625,0,0,0,2.513-4.02h44.24ZM28,30.844h1.508c2.066,3.083,6.226,4.882,7.541,8.543l-8.044,8.041-0.5-.5c-1.314-.842-1.666-1.088-2.011-3.015,1.84-1.159,4.266-3.315,5.027-5.528C28.118,36.377,25.88,34.294,28,30.844Zm13.574,4.523H52.135v3.518H41.577V35.367ZM18.955,147.432A144.194,144.194,0,0,1,17.949,121.8c2.683-1.753,5.006-4.619,8.044-6.03,22.045-10.244,66.75-11.374,91.5-4.021,7.267,2.16,22.389,4.348,24.634,10.554,2.349,2.939.656,22.268-1.006,24.624-1.86,1.149-6.774.5-9.552,0.5H18.955Z"/>
  <path id="Shape_318_1" data-name="Shape 318 1" class="cls-3" d="M99.674,79.4c-0.75,6.49-3.433,8.066-5.239,12.164V101.7c5.829,2.544,11.751,6.015,18.334,7.6v1.013h-1.047c-3.137-1.944-8.362-.638-12.573-1.52-12.45-2.608-35.731-1.76-47.67.507v-1.014c2.023-.43,15.2-5.651,15.716-6.588V91.562c-3.122-2.15-4.7-7.608-5.239-12.164h-2.1c-1.891-2.756-5.127-8.093-2.1-12.67,0.279-.422,1.9-0.693,2.1-1.014q-0.262-6.588-.524-13.177c2.169-7.363,13.212-17.116,25.669-14.191,8,1.879,15.18,6.725,17.287,14.191q-0.263,6.588-.524,13.177c0.093,0.158,2.211,1.117,2.619,2.027C106.624,72.728,104.255,78.915,99.674,79.4Z"/>
</svg>
